{
    "patcher": {
        "fileversion": 1,
        "appversion": {
            "major": 9,
            "minor": 1,
            "revision": 1,
            "architecture": "x64",
            "modernui": 1
        },
        "classnamespace": "box",
        "rect": [ 608.0, 239.0, 614.0, 576.0 ],
        "boxes": [
            {
                "box": {
                    "id": "obj-9",
                    "maxclass": "newobj",
                    "numinlets": 1,
                    "numoutlets": 1,
                    "outlettype": [ "" ],
                    "patching_rect": [ 389.37908500000003, 193.0, 81.0, 22.0 ],
                    "text": "loadmess -50"
                }
            },
            {
                "box": {
                    "id": "obj-2",
                    "maxclass": "ezdac~",
                    "numinlets": 2,
                    "numoutlets": 0,
                    "patching_rect": [ 369.9346522092819, 411.7647188901901, 45.0, 45.0 ]
                }
            },
            {
                "box": {
                    "id": "obj-1",
                    "lastchannelcount": 0,
                    "maxclass": "live.gain~",
                    "numinlets": 2,
                    "numoutlets": 5,
                    "outlettype": [ "signal", "signal", "", "float", "list" ],
                    "parameter_enable": 1,
                    "patching_rect": [ 353.59478241205215, 228.75817716121674, 48.0, 136.0 ],
                    "saved_attribute_attributes": {
                        "valueof": {
                            "parameter_longname": "live.gain~",
                            "parameter_mmax": 6.0,
                            "parameter_mmin": -70.0,
                            "parameter_modmode": 3,
                            "parameter_shortname": "live.gain~",
                            "parameter_type": 0,
                            "parameter_unitstyle": 4
                        }
                    },
                    "varname": "live.gain~"
                }
            },
            {
                "box": {
                    "id": "obj-14",
                    "maxclass": "live.scope~",
                    "numinlets": 2,
                    "numoutlets": 1,
                    "outlettype": [ "bang" ],
                    "patching_rect": [ 139.2156906723976, 228.75817716121674, 96.00000286102295, 42.00000125169754 ]
                }
            },
            {
                "box": {
                    "id": "obj-6",
                    "maxclass": "newobj",
                    "numinlets": 1,
                    "numoutlets": 1,
                    "outlettype": [ "signal" ],
                    "patcher": {
                        "fileversion": 1,
                        "appversion": {
                            "major": 9,
                            "minor": 1,
                            "revision": 1,
                            "architecture": "x64",
                            "modernui": 1
                        },
                        "classnamespace": "dsp.gen",
                        "rect": [ 380.0, 292.0, 698.0, 584.0 ],
                        "boxes": [
                            {
                                "box": {
                                    "id": "obj-19",
                                    "maxclass": "newobj",
                                    "numinlets": 2,
                                    "numoutlets": 1,
                                    "outlettype": [ "" ],
                                    "patching_rect": [ 23.333334028720856, 282.6666750907898, 123.00000309944153, 22.0 ],
                                    "text": "*"
                                }
                            },
                            {
                                "box": {
                                    "id": "obj-18",
                                    "maxclass": "newobj",
                                    "numinlets": 2,
                                    "numoutlets": 1,
                                    "outlettype": [ "" ],
                                    "patching_rect": [ 127.33333712816238, 247.33334070444107, 79.33333569765091, 22.0 ],
                                    "text": "*"
                                }
                            },
                            {
                                "box": {
                                    "id": "obj-14",
                                    "maxclass": "newobj",
                                    "numinlets": 1,
                                    "numoutlets": 2,
                                    "outlettype": [ "", "" ],
                                    "patching_rect": [ 56.666668355464935, 198.00000590085983, 36.0, 22.0 ],
                                    "text": "cycle"
                                }
                            },
                            {
                                "box": {
                                    "id": "obj-13",
                                    "maxclass": "newobj",
                                    "numinlets": 2,
                                    "numoutlets": 1,
                                    "outlettype": [ "" ],
                                    "patching_rect": [ 56.666668355464935, 156.0000046491623, 71.33333545923233, 22.0 ],
                                    "text": "*"
                                }
                            },
                            {
                                "box": {
                                    "id": "obj-12",
                                    "maxclass": "newobj",
                                    "numinlets": 2,
                                    "numoutlets": 1,
                                    "outlettype": [ "" ],
                                    "patching_rect": [ 23.333334028720856, 247.33334070444107, 52.666668236255646, 22.0 ],
                                    "text": "+"
                                }
                            },
                            {
                                "box": {
                                    "id": "obj-11",
                                    "linecount": 3,
                                    "maxclass": "newobj",
                                    "numinlets": 0,
                                    "numoutlets": 1,
                                    "outlettype": [ "" ],
                                    "patching_rect": [ 109.33333659172058, 96.66666954755783, 145.00000217556953, 50.0 ],
                                    "text": "param carrierRatio @default 1 @min 0 @max 1000"
                                }
                            },
                            {
                                "box": {
                                    "id": "obj-10",
                                    "maxclass": "newobj",
                                    "numinlets": 2,
                                    "numoutlets": 1,
                                    "outlettype": [ "" ],
                                    "patching_rect": [ 187.33333891630173, 214.000006377697, 79.33333569765091, 22.0 ],
                                    "text": "*"
                                }
                            },
                            {
                                "box": {
                                    "id": "obj-9",
                                    "maxclass": "newobj",
                                    "numinlets": 0,
                                    "numoutlets": 1,
                                    "outlettype": [ "" ],
                                    "patching_rect": [ 248.00000739097595, 156.0000046491623, 299.0, 22.0 ],
                                    "text": "param modDepth @min 0 @max 10000 @default 0.02"
                                }
                            },
                            {
                                "box": {
                                    "id": "obj-8",
                                    "linecount": 2,
                                    "maxclass": "newobj",
                                    "numinlets": 0,
                                    "numoutlets": 1,
                                    "outlettype": [ "" ],
                                    "patching_rect": [ 23.333334028720856, 30.666667580604553, 235.6666697859764, 36.0 ],
                                    "text": "param carrierFQ @min 0.001 @max 440 @default 220"
                                }
                            },
                            {
                                "box": {
                                    "id": "obj-7",
                                    "maxclass": "newobj",
                                    "numinlets": 1,
                                    "numoutlets": 0,
                                    "patching_rect": [ 23.333334028720856, 347.3333436846733, 35.0, 22.0 ],
                                    "text": "out 1"
                                }
                            },
                            {
                                "box": {
                                    "id": "obj-5",
                                    "maxclass": "comment",
                                    "numinlets": 1,
                                    "numoutlets": 0,
                                    "patching_rect": [ 23.333334028720856, 8.66666692495346, 150.0, 20.0 ],
                                    "text": "carrier"
                                }
                            },
                            {
                                "box": {
                                    "id": "obj-4",
                                    "maxclass": "comment",
                                    "numinlets": 1,
                                    "numoutlets": 0,
                                    "patching_rect": [ 109.33333659172058, 74.66666889190674, 150.0, 20.0 ],
                                    "text": "modulator"
                                }
                            },
                            {
                                "box": {
                                    "id": "obj-1",
                                    "maxclass": "newobj",
                                    "numinlets": 1,
                                    "numoutlets": 2,
                                    "outlettype": [ "", "" ],
                                    "patching_rect": [ 23.333334028720856, 312.66667598485947, 36.0, 22.0 ],
                                    "text": "cycle"
                                }
                            }
                        ],
                        "lines": [
                            {
                                "patchline": {
                                    "destination": [ "obj-7", 0 ],
                                    "source": [ "obj-1", 0 ]
                                }
                            },
                            {
                                "patchline": {
                                    "destination": [ "obj-18", 1 ],
                                    "source": [ "obj-10", 0 ]
                                }
                            },
                            {
                                "patchline": {
                                    "destination": [ "obj-13", 1 ],
                                    "source": [ "obj-11", 0 ]
                                }
                            },
                            {
                                "patchline": {
                                    "destination": [ "obj-19", 0 ],
                                    "source": [ "obj-12", 0 ]
                                }
                            },
                            {
                                "patchline": {
                                    "destination": [ "obj-10", 0 ],
                                    "order": 0,
                                    "source": [ "obj-13", 0 ]
                                }
                            },
                            {
                                "patchline": {
                                    "destination": [ "obj-14", 0 ],
                                    "order": 1,
                                    "source": [ "obj-13", 0 ]
                                }
                            },
                            {
                                "patchline": {
                                    "destination": [ "obj-12", 1 ],
                                    "order": 1,
                                    "source": [ "obj-14", 0 ]
                                }
                            },
                            {
                                "patchline": {
                                    "destination": [ "obj-18", 0 ],
                                    "order": 0,
                                    "source": [ "obj-14", 0 ]
                                }
                            },
                            {
                                "patchline": {
                                    "destination": [ "obj-19", 1 ],
                                    "source": [ "obj-18", 0 ]
                                }
                            },
                            {
                                "patchline": {
                                    "destination": [ "obj-1", 0 ],
                                    "source": [ "obj-19", 0 ]
                                }
                            },
                            {
                                "patchline": {
                                    "destination": [ "obj-12", 0 ],
                                    "order": 1,
                                    "source": [ "obj-8", 0 ]
                                }
                            },
                            {
                                "patchline": {
                                    "destination": [ "obj-13", 0 ],
                                    "order": 0,
                                    "source": [ "obj-8", 0 ]
                                }
                            },
                            {
                                "patchline": {
                                    "destination": [ "obj-10", 1 ],
                                    "source": [ "obj-9", 0 ]
                                }
                            }
                        ]
                    },
                    "patching_rect": [ 14.379085421562195, 188.2353000640869, 144.0, 22.0 ],
                    "text": "gen~ @title phasor-demo"
                }
            },
            {
                "box": {
                    "fontname": "Bahnschrift",
                    "fontsize": 14.0,
                    "id": "obj-5",
                    "maxclass": "comment",
                    "numinlets": 1,
                    "numoutlets": 0,
                    "patching_rect": [ 14.379085421562195, 92.15686565637589, 434.0, 23.0 ],
                    "text": "OK, here we go!"
                }
            },
            {
                "box": {
                    "id": "obj-77",
                    "maxclass": "live.scope~",
                    "numinlets": 2,
                    "numoutlets": 1,
                    "outlettype": [ "bang" ],
                    "patching_rect": [ 14.379085421562195, 228.75817716121674, 96.00000286102295, 42.00000125169754 ]
                }
            },
            {
                "box": {
                    "id": "obj-55",
                    "linecount": 2,
                    "maxclass": "comment",
                    "numinlets": 1,
                    "numoutlets": 0,
                    "patching_rect": [ 156.86275005340576, 486.92811995744705, 386.0, 34.0 ],
                    "text": "developed Winter/Spring 2025 by Grace Grace Grace for Intro to Microsound at Experimental Sound Studio, Chicago "
                }
            },
            {
                "box": {
                    "autofit": 1,
                    "forceaspect": 1,
                    "id": "obj-53",
                    "maxclass": "fpic",
                    "numinlets": 1,
                    "numoutlets": 1,
                    "outlettype": [ "jit_matrix" ],
                    "patching_rect": [ 15.686275005340576, 462.745112657547, 121.0, 58.24915445321308 ],
                    "pic": "C:/Users/garre/OneDrive/Documents/_CCAM/Design/_logos/CCAM - white.png"
                }
            },
            {
                "box": {
                    "fontname": "Bahnschrift",
                    "fontsize": 48.0,
                    "id": "obj-3",
                    "maxclass": "comment",
                    "numinlets": 1,
                    "numoutlets": 0,
                    "patching_rect": [ 11.764706254005432, 16.339869797229767, 554.0, 64.0 ],
                    "text": "1.5 FM synthesis"
                }
            },
            {
                "box": {
                    "attr": "carrierFQ",
                    "id": "obj-4",
                    "maxclass": "attrui",
                    "numinlets": 1,
                    "numoutlets": 1,
                    "outlettype": [ "" ],
                    "parameter_enable": 0,
                    "patching_rect": [ 14.379085, 158.16994, 150.0, 22.0 ]
                }
            },
            {
                "box": {
                    "attr": "modDepth",
                    "id": "obj-7",
                    "maxclass": "attrui",
                    "numinlets": 1,
                    "numoutlets": 1,
                    "outlettype": [ "" ],
                    "parameter_enable": 0,
                    "patching_rect": [ 167.379085, 158.16994, 150.0, 22.0 ]
                }
            },
            {
                "box": {
                    "attr": "carrierRatio",
                    "id": "obj-8",
                    "maxclass": "attrui",
                    "numinlets": 1,
                    "numoutlets": 1,
                    "outlettype": [ "" ],
                    "parameter_enable": 0,
                    "patching_rect": [ 320.37908500000003, 158.16994, 150.0, 22.0 ]
                }
            }
        ],
        "lines": [
            {
                "patchline": {
                    "destination": [ "obj-2", 1 ],
                    "source": [ "obj-1", 1 ]
                }
            },
            {
                "patchline": {
                    "destination": [ "obj-2", 0 ],
                    "source": [ "obj-1", 0 ]
                }
            },
            {
                "patchline": {
                    "destination": [ "obj-6", 0 ],
                    "source": [ "obj-4", 0 ]
                }
            },
            {
                "patchline": {
                    "destination": [ "obj-1", 1 ],
                    "order": 0,
                    "source": [ "obj-6", 0 ]
                }
            },
            {
                "patchline": {
                    "destination": [ "obj-1", 0 ],
                    "order": 1,
                    "source": [ "obj-6", 0 ]
                }
            },
            {
                "patchline": {
                    "destination": [ "obj-77", 0 ],
                    "order": 2,
                    "source": [ "obj-6", 0 ]
                }
            },
            {
                "patchline": {
                    "destination": [ "obj-6", 0 ],
                    "source": [ "obj-7", 0 ]
                }
            },
            {
                "patchline": {
                    "destination": [ "obj-6", 0 ],
                    "source": [ "obj-8", 0 ]
                }
            },
            {
                "patchline": {
                    "destination": [ "obj-1", 0 ],
                    "source": [ "obj-9", 0 ]
                }
            }
        ],
        "parameters": {
            "obj-1": [ "live.gain~", "live.gain~", 0 ],
            "inherited_shortname": 1
        },
        "autosave": 0
    }
}