{
    "patcher": {
        "fileversion": 1,
        "appversion": {
            "major": 9,
            "minor": 1,
            "revision": 1,
            "architecture": "x64",
            "modernui": 1
        },
        "classnamespace": "box",
        "rect": [ 34.0, 83.0, 1144.0, 778.0 ],
        "boxes": [
            {
                "box": {
                    "fontname": "Bahnschrift",
                    "fontsize": 48.0,
                    "id": "obj-5",
                    "linecount": 2,
                    "maxclass": "comment",
                    "numinlets": 1,
                    "numoutlets": 0,
                    "patching_rect": [ 52.0, 37.0, 452.0, 122.0 ],
                    "presentation_linecount": 2,
                    "text": "bonus:  Envelope Following"
                }
            },
            {
                "box": {
                    "displaychan": 2,
                    "id": "obj-3",
                    "maxclass": "scope~",
                    "numinlets": 2,
                    "numoutlets": 0,
                    "patching_rect": [ 494.0, 537.0, 279.0, 128.0 ]
                }
            },
            {
                "box": {
                    "id": "obj-56",
                    "maxclass": "newobj",
                    "numinlets": 1,
                    "numoutlets": 1,
                    "outlettype": [ "signal" ],
                    "patching_rect": [ 683.0, 432.0, 31.0, 22.0 ],
                    "text": "sig~"
                }
            },
            {
                "box": {
                    "id": "obj-57",
                    "maxclass": "newobj",
                    "numinlets": 1,
                    "numoutlets": 1,
                    "outlettype": [ "" ],
                    "patching_rect": [ 683.0, 396.0, 32.0, 22.0 ],
                    "text": "mtof"
                }
            },
            {
                "box": {
                    "id": "obj-58",
                    "maxclass": "kslider",
                    "numinlets": 2,
                    "numoutlets": 2,
                    "outlettype": [ "int", "int" ],
                    "parameter_enable": 0,
                    "patching_rect": [ 683.0, 328.0, 336.0, 53.0 ]
                }
            },
            {
                "box": {
                    "id": "obj-53",
                    "maxclass": "newobj",
                    "numinlets": 1,
                    "numoutlets": 1,
                    "outlettype": [ "signal" ],
                    "patching_rect": [ 633.0, 358.0, 31.0, 22.0 ],
                    "text": "sig~"
                }
            },
            {
                "box": {
                    "id": "obj-54",
                    "maxclass": "newobj",
                    "numinlets": 1,
                    "numoutlets": 1,
                    "outlettype": [ "" ],
                    "patching_rect": [ 633.0, 323.0, 32.0, 22.0 ],
                    "text": "mtof"
                }
            },
            {
                "box": {
                    "id": "obj-55",
                    "maxclass": "kslider",
                    "numinlets": 2,
                    "numoutlets": 2,
                    "outlettype": [ "int", "int" ],
                    "parameter_enable": 0,
                    "patching_rect": [ 633.0, 255.0, 336.0, 53.0 ]
                }
            },
            {
                "box": {
                    "id": "obj-50",
                    "maxclass": "newobj",
                    "numinlets": 1,
                    "numoutlets": 1,
                    "outlettype": [ "signal" ],
                    "patching_rect": [ 581.0, 286.0, 31.0, 22.0 ],
                    "text": "sig~"
                }
            },
            {
                "box": {
                    "id": "obj-51",
                    "maxclass": "newobj",
                    "numinlets": 1,
                    "numoutlets": 1,
                    "outlettype": [ "" ],
                    "patching_rect": [ 580.0, 255.0, 32.0, 22.0 ],
                    "text": "mtof"
                }
            },
            {
                "box": {
                    "id": "obj-52",
                    "maxclass": "kslider",
                    "numinlets": 2,
                    "numoutlets": 2,
                    "outlettype": [ "int", "int" ],
                    "parameter_enable": 0,
                    "patching_rect": [ 580.0, 186.0, 336.0, 53.0 ]
                }
            },
            {
                "box": {
                    "id": "obj-49",
                    "maxclass": "newobj",
                    "numinlets": 4,
                    "numoutlets": 1,
                    "outlettype": [ "multichannelsignal" ],
                    "patching_rect": [ 530.0, 464.0, 172.0, 22.0 ],
                    "text": "mc.pack~ 4"
                }
            },
            {
                "box": {
                    "id": "obj-48",
                    "maxclass": "newobj",
                    "numinlets": 1,
                    "numoutlets": 1,
                    "outlettype": [ "signal" ],
                    "patching_rect": [ 530.0, 220.0, 31.0, 22.0 ],
                    "text": "sig~"
                }
            },
            {
                "box": {
                    "data": {
                        "clips": [
                            {
                                "absolutepath": "Funki.wav",
                                "filename": "Funki.wav",
                                "filekind": "audiofile",
                                "id": "u990002085",
                                "selection": [ 0.0, 1.0 ],
                                "loop": 1,
                                "content_state": {
                                    "loop": 1
                                }
                            }
                        ]
                    },
                    "id": "obj-45",
                    "maxclass": "playlist~",
                    "mode": "basic",
                    "numinlets": 1,
                    "numoutlets": 5,
                    "outlettype": [ "signal", "signal", "signal", "", "dictionary" ],
                    "parameter_enable": 0,
                    "patching_rect": [ 107.0, 197.0, 150.0, 30.0 ],
                    "quality": "basic",
                    "saved_attribute_attributes": {
                        "candicane2": {
                            "expression": ""
                        },
                        "candicane3": {
                            "expression": ""
                        },
                        "candicane4": {
                            "expression": ""
                        },
                        "candicane5": {
                            "expression": ""
                        },
                        "candicane6": {
                            "expression": ""
                        },
                        "candicane7": {
                            "expression": ""
                        },
                        "candicane8": {
                            "expression": ""
                        }
                    }
                }
            },
            {
                "box": {
                    "id": "obj-43",
                    "maxclass": "newobj",
                    "numinlets": 1,
                    "numoutlets": 1,
                    "outlettype": [ "" ],
                    "patching_rect": [ 530.0, 186.0, 32.0, 22.0 ],
                    "text": "mtof"
                }
            },
            {
                "box": {
                    "id": "obj-42",
                    "maxclass": "kslider",
                    "numinlets": 2,
                    "numoutlets": 2,
                    "outlettype": [ "int", "int" ],
                    "parameter_enable": 0,
                    "patching_rect": [ 530.0, 115.0, 336.0, 53.0 ]
                }
            },
            {
                "box": {
                    "id": "obj-33",
                    "maxclass": "mc.ezdac~",
                    "numinlets": 1,
                    "numoutlets": 0,
                    "patching_rect": [ 308.0, 543.0, 45.0, 45.0 ]
                }
            },
            {
                "box": {
                    "id": "obj-30",
                    "lastchannelcount": 2,
                    "maxclass": "mc.live.gain~",
                    "numinlets": 1,
                    "numoutlets": 4,
                    "outlettype": [ "multichannelsignal", "", "float", "list" ],
                    "parameter_enable": 1,
                    "patching_rect": [ 308.0, 396.0, 48.0, 136.0 ],
                    "saved_attribute_attributes": {
                        "valueof": {
                            "parameter_longname": "mc.live.gain~",
                            "parameter_mmax": 6.0,
                            "parameter_mmin": -70.0,
                            "parameter_modmode": 3,
                            "parameter_shortname": "mc.live.gain~",
                            "parameter_type": 0,
                            "parameter_unitstyle": 4
                        }
                    },
                    "varname": "mc.live.gain~"
                }
            },
            {
                "box": {
                    "id": "obj-27",
                    "maxclass": "newobj",
                    "numinlets": 2,
                    "numoutlets": 1,
                    "outlettype": [ "multichannelsignal" ],
                    "patching_rect": [ 308.0, 363.0, 211.0, 22.0 ],
                    "text": "mc.mixdown~ @chans 2 @autogain 1"
                }
            },
            {
                "box": {
                    "id": "obj-23",
                    "maxclass": "newobj",
                    "numinlets": 2,
                    "numoutlets": 1,
                    "outlettype": [ "multichannelsignal" ],
                    "patching_rect": [ 287.0, 328.0, 180.0, 22.0 ],
                    "text": "mc.gen~ env-follower @chans 4"
                }
            },
            {
                "box": {
                    "data": {
                        "clips": [
                            {
                                "absolutepath": "drumLoop.aif",
                                "filename": "drumLoop.aif",
                                "filekind": "audiofile",
                                "id": "u574001371",
                                "selection": [ 0.0, 1.0 ],
                                "loop": 0,
                                "content_state": {
                                    "loop": 0
                                }
                            }
                        ]
                    },
                    "id": "obj-22",
                    "maxclass": "playlist~",
                    "mode": "basic",
                    "numinlets": 1,
                    "numoutlets": 5,
                    "outlettype": [ "signal", "signal", "signal", "", "dictionary" ],
                    "parameter_enable": 0,
                    "patching_rect": [ 79.0, 239.0, 150.0, 30.0 ],
                    "quality": "basic",
                    "saved_attribute_attributes": {
                        "candicane2": {
                            "expression": ""
                        },
                        "candicane3": {
                            "expression": ""
                        },
                        "candicane4": {
                            "expression": ""
                        },
                        "candicane5": {
                            "expression": ""
                        },
                        "candicane6": {
                            "expression": ""
                        },
                        "candicane7": {
                            "expression": ""
                        },
                        "candicane8": {
                            "expression": ""
                        }
                    }
                }
            },
            {
                "box": {
                    "id": "obj-6",
                    "maxclass": "live.scope~",
                    "numinlets": 2,
                    "numoutlets": 1,
                    "outlettype": [ "bang" ],
                    "patching_rect": [ 287.0, 597.0, 184.0, 68.0 ]
                }
            },
            {
                "box": {
                    "id": "obj-2",
                    "maxclass": "comment",
                    "numinlets": 1,
                    "numoutlets": 0,
                    "patching_rect": [ 123.0, 172.0, 150.0, 20.0 ],
                    "text": "envelope to follow"
                }
            },
            {
                "box": {
                    "attr": "chans",
                    "id": "obj-24",
                    "maxclass": "attrui",
                    "numinlets": 1,
                    "numoutlets": 1,
                    "outlettype": [ "" ],
                    "parameter_enable": 0,
                    "patching_rect": [ 325.0, 292.0, 150.0, 22.0 ]
                }
            },
            {
                "box": {
                    "attr": "slide_down",
                    "id": "obj-40",
                    "maxclass": "attrui",
                    "numinlets": 1,
                    "numoutlets": 1,
                    "outlettype": [ "" ],
                    "parameter_enable": 0,
                    "patching_rect": [ 287.0, 261.0, 150.0, 22.0 ]
                }
            }
        ],
        "lines": [
            {
                "patchline": {
                    "destination": [ "obj-23", 0 ],
                    "source": [ "obj-22", 0 ]
                }
            },
            {
                "patchline": {
                    "destination": [ "obj-27", 0 ],
                    "order": 1,
                    "source": [ "obj-23", 0 ]
                }
            },
            {
                "patchline": {
                    "destination": [ "obj-3", 0 ],
                    "order": 0,
                    "source": [ "obj-23", 0 ]
                }
            },
            {
                "patchline": {
                    "destination": [ "obj-6", 0 ],
                    "order": 2,
                    "source": [ "obj-23", 0 ]
                }
            },
            {
                "patchline": {
                    "destination": [ "obj-23", 0 ],
                    "source": [ "obj-24", 0 ]
                }
            },
            {
                "patchline": {
                    "destination": [ "obj-30", 0 ],
                    "source": [ "obj-27", 0 ]
                }
            },
            {
                "patchline": {
                    "destination": [ "obj-33", 0 ],
                    "source": [ "obj-30", 0 ]
                }
            },
            {
                "patchline": {
                    "destination": [ "obj-23", 0 ],
                    "source": [ "obj-40", 0 ]
                }
            },
            {
                "patchline": {
                    "destination": [ "obj-43", 0 ],
                    "source": [ "obj-42", 0 ]
                }
            },
            {
                "patchline": {
                    "destination": [ "obj-48", 0 ],
                    "source": [ "obj-43", 0 ]
                }
            },
            {
                "patchline": {
                    "destination": [ "obj-23", 0 ],
                    "source": [ "obj-45", 0 ]
                }
            },
            {
                "patchline": {
                    "destination": [ "obj-49", 0 ],
                    "source": [ "obj-48", 0 ]
                }
            },
            {
                "patchline": {
                    "destination": [ "obj-23", 1 ],
                    "source": [ "obj-49", 0 ]
                }
            },
            {
                "patchline": {
                    "destination": [ "obj-49", 1 ],
                    "source": [ "obj-50", 0 ]
                }
            },
            {
                "patchline": {
                    "destination": [ "obj-50", 0 ],
                    "source": [ "obj-51", 0 ]
                }
            },
            {
                "patchline": {
                    "destination": [ "obj-51", 0 ],
                    "source": [ "obj-52", 0 ]
                }
            },
            {
                "patchline": {
                    "destination": [ "obj-49", 2 ],
                    "source": [ "obj-53", 0 ]
                }
            },
            {
                "patchline": {
                    "destination": [ "obj-53", 0 ],
                    "source": [ "obj-54", 0 ]
                }
            },
            {
                "patchline": {
                    "destination": [ "obj-54", 0 ],
                    "source": [ "obj-55", 0 ]
                }
            },
            {
                "patchline": {
                    "destination": [ "obj-49", 3 ],
                    "source": [ "obj-56", 0 ]
                }
            },
            {
                "patchline": {
                    "destination": [ "obj-56", 0 ],
                    "source": [ "obj-57", 0 ]
                }
            },
            {
                "patchline": {
                    "destination": [ "obj-57", 0 ],
                    "source": [ "obj-58", 0 ]
                }
            }
        ],
        "parameters": {
            "obj-30": [ "mc.live.gain~", "mc.live.gain~", 0 ],
            "inherited_shortname": 1
        },
        "autosave": 0
    }
}