{
    "patcher": {
        "fileversion": 1,
        "appversion": {
            "major": 9,
            "minor": 1,
            "revision": 1,
            "architecture": "x64",
            "modernui": 1
        },
        "classnamespace": "box",
        "rect": [ 710.0, -950.0, 847.0, 684.0 ],
        "boxes": [
            {
                "box": {
                    "id": "obj-23",
                    "maxclass": "number",
                    "numinlets": 1,
                    "numoutlets": 2,
                    "outlettype": [ "", "bang" ],
                    "parameter_enable": 0,
                    "patching_rect": [ 131.0, 120.0, 50.0, 22.0 ]
                }
            },
            {
                "box": {
                    "id": "obj-21",
                    "maxclass": "comment",
                    "numinlets": 1,
                    "numoutlets": 0,
                    "patching_rect": [ 31.0, 92.0, 100.0, 20.0 ],
                    "text": "click here to start"
                }
            },
            {
                "box": {
                    "id": "obj-19",
                    "maxclass": "toggle",
                    "numinlets": 1,
                    "numoutlets": 1,
                    "outlettype": [ "int" ],
                    "parameter_enable": 0,
                    "patching_rect": [ 31.0, 114.0, 24.0, 24.0 ]
                }
            },
            {
                "box": {
                    "id": "obj-17",
                    "maxclass": "newobj",
                    "numinlets": 2,
                    "numoutlets": 1,
                    "outlettype": [ "bang" ],
                    "patching_rect": [ 31.0, 152.0, 119.0, 22.0 ],
                    "text": "metro 100 @active 0"
                }
            },
            {
                "box": {
                    "fontname": "Bahnschrift",
                    "fontsize": 48.0,
                    "id": "obj-15",
                    "maxclass": "comment",
                    "numinlets": 1,
                    "numoutlets": 0,
                    "patching_rect": [ 25.0, 19.0, 723.0, 64.0 ],
                    "text": "3.2 granulator (daisy chain poly)"
                }
            },
            {
                "box": {
                    "id": "obj-55",
                    "linecount": 2,
                    "maxclass": "comment",
                    "numinlets": 1,
                    "numoutlets": 0,
                    "patching_rect": [ 157.0, 590.0, 386.0, 34.0 ],
                    "text": "developed Winter/Spring 2025 by Grace Grace Grace for Intro to Microsound at Experimental Sound Studio, Chicago "
                }
            },
            {
                "box": {
                    "autofit": 1,
                    "forceaspect": 1,
                    "id": "obj-53",
                    "maxclass": "fpic",
                    "numinlets": 1,
                    "numoutlets": 1,
                    "outlettype": [ "jit_matrix" ],
                    "patching_rect": [ 31.0, 562.0, 121.0, 58.24915445321308 ],
                    "pic": "C:/Users/garre/OneDrive/Documents/_CCAM/Design/_logos/CCAM - white.png"
                }
            },
            {
                "box": {
                    "fontface": 0,
                    "fontname": "Arial",
                    "fontsize": 12.0,
                    "id": "obj-14",
                    "maxclass": "number~",
                    "mode": 2,
                    "numinlets": 2,
                    "numoutlets": 2,
                    "outlettype": [ "signal", "float" ],
                    "patching_rect": [ 88.0, 326.0, 56.0, 22.0 ],
                    "sig": 0.0
                }
            },
            {
                "box": {
                    "id": "obj-4",
                    "maxclass": "live.scope~",
                    "numinlets": 2,
                    "numoutlets": 1,
                    "outlettype": [ "bang" ],
                    "patching_rect": [ 87.0, 361.0, 184.0, 68.0 ]
                }
            },
            {
                "box": {
                    "id": "obj-7",
                    "maxclass": "ezdac~",
                    "numinlets": 2,
                    "numoutlets": 0,
                    "patching_rect": [ 22.0, 497.0, 45.0, 45.0 ]
                }
            },
            {
                "box": {
                    "id": "obj-6",
                    "lastchannelcount": 0,
                    "maxclass": "live.gain~",
                    "numinlets": 2,
                    "numoutlets": 5,
                    "outlettype": [ "signal", "signal", "", "float", "list" ],
                    "parameter_enable": 1,
                    "patching_rect": [ 25.0, 351.0, 48.0, 136.0 ],
                    "saved_attribute_attributes": {
                        "valueof": {
                            "parameter_longname": "live.gain~",
                            "parameter_mmax": 6.0,
                            "parameter_mmin": -70.0,
                            "parameter_modmode": 3,
                            "parameter_shortname": "live.gain~",
                            "parameter_type": 0,
                            "parameter_unitstyle": 4
                        }
                    },
                    "varname": "live.gain~"
                }
            },
            {
                "box": {
                    "id": "obj-5",
                    "maxclass": "button",
                    "numinlets": 1,
                    "numoutlets": 1,
                    "outlettype": [ "bang" ],
                    "parameter_enable": 0,
                    "patching_rect": [ 31.0, 218.0, 24.0, 24.0 ]
                }
            },
            {
                "box": {
                    "id": "obj-3",
                    "maxclass": "newobj",
                    "numinlets": 1,
                    "numoutlets": 1,
                    "outlettype": [ "signal" ],
                    "patching_rect": [ 31.0, 251.0, 39.0, 22.0 ],
                    "text": "click~"
                }
            },
            {
                "box": {
                    "id": "obj-2",
                    "maxclass": "newobj",
                    "numinlets": 1,
                    "numoutlets": 2,
                    "outlettype": [ "signal", "signal" ],
                    "patcher": {
                        "fileversion": 1,
                        "appversion": {
                            "major": 9,
                            "minor": 1,
                            "revision": 1,
                            "architecture": "x64",
                            "modernui": 1
                        },
                        "classnamespace": "dsp.gen",
                        "rect": [ 676.0, -792.0, 1168.0, 594.0 ],
                        "boxes": [
                            {
                                "box": {
                                    "id": "obj-34",
                                    "linecount": 5,
                                    "maxclass": "comment",
                                    "numinlets": 1,
                                    "numoutlets": 0,
                                    "patching_rect": [ 651.0, 112.5, 150.0, 75.0 ],
                                    "text": "notice how history objects make the param values accessible within the scope of the \"grain\" gen patcher"
                                }
                            },
                            {
                                "box": {
                                    "id": "obj-32",
                                    "linecount": 3,
                                    "maxclass": "comment",
                                    "numinlets": 1,
                                    "numoutlets": 0,
                                    "patching_rect": [ 718.0, 328.0, 150.0, 48.0 ],
                                    "text": "sum busy state of all grain modules and send out accordingly"
                                }
                            },
                            {
                                "box": {
                                    "id": "obj-29",
                                    "maxclass": "newobj",
                                    "numinlets": 1,
                                    "numoutlets": 0,
                                    "patching_rect": [ 670.0, 354.0, 35.0, 22.0 ],
                                    "text": "out 2"
                                }
                            },
                            {
                                "box": {
                                    "id": "obj-15",
                                    "maxclass": "newobj",
                                    "numinlets": 1,
                                    "numoutlets": 0,
                                    "patching_rect": [ 654.0, 272.0, 35.0, 22.0 ],
                                    "text": "out 1"
                                }
                            },
                            {
                                "box": {
                                    "id": "obj-16",
                                    "maxclass": "newobj",
                                    "numinlets": 1,
                                    "numoutlets": 4,
                                    "outlettype": [ "", "", "", "" ],
                                    "patching_rect": [ 654.0, 228.0, 35.0, 22.0 ],
                                    "text": "grain"
                                }
                            },
                            {
                                "box": {
                                    "id": "obj-17",
                                    "maxclass": "newobj",
                                    "numinlets": 1,
                                    "numoutlets": 0,
                                    "patching_rect": [ 596.0, 272.0, 35.0, 22.0 ],
                                    "text": "out 1"
                                }
                            },
                            {
                                "box": {
                                    "id": "obj-18",
                                    "maxclass": "newobj",
                                    "numinlets": 1,
                                    "numoutlets": 4,
                                    "outlettype": [ "", "", "", "" ],
                                    "patching_rect": [ 596.0, 228.0, 35.0, 22.0 ],
                                    "text": "grain"
                                }
                            },
                            {
                                "box": {
                                    "id": "obj-19",
                                    "maxclass": "newobj",
                                    "numinlets": 1,
                                    "numoutlets": 0,
                                    "patching_rect": [ 539.0, 274.0, 35.0, 22.0 ],
                                    "text": "out 1"
                                }
                            },
                            {
                                "box": {
                                    "id": "obj-20",
                                    "maxclass": "newobj",
                                    "numinlets": 1,
                                    "numoutlets": 4,
                                    "outlettype": [ "", "", "", "" ],
                                    "patching_rect": [ 539.0, 228.0, 35.0, 22.0 ],
                                    "text": "grain"
                                }
                            },
                            {
                                "box": {
                                    "id": "obj-21",
                                    "maxclass": "newobj",
                                    "numinlets": 1,
                                    "numoutlets": 0,
                                    "patching_rect": [ 490.0, 272.0, 35.0, 22.0 ],
                                    "text": "out 1"
                                }
                            },
                            {
                                "box": {
                                    "id": "obj-23",
                                    "maxclass": "newobj",
                                    "numinlets": 1,
                                    "numoutlets": 4,
                                    "outlettype": [ "", "", "", "" ],
                                    "patching_rect": [ 490.0, 228.0, 35.0, 22.0 ],
                                    "text": "grain"
                                }
                            },
                            {
                                "box": {
                                    "id": "obj-25",
                                    "maxclass": "newobj",
                                    "numinlets": 1,
                                    "numoutlets": 0,
                                    "patching_rect": [ 431.0, 272.0, 35.0, 22.0 ],
                                    "text": "out 1"
                                }
                            },
                            {
                                "box": {
                                    "id": "obj-26",
                                    "maxclass": "newobj",
                                    "numinlets": 1,
                                    "numoutlets": 4,
                                    "outlettype": [ "", "", "", "" ],
                                    "patching_rect": [ 431.0, 228.0, 35.0, 22.0 ],
                                    "text": "grain"
                                }
                            },
                            {
                                "box": {
                                    "id": "obj-27",
                                    "maxclass": "newobj",
                                    "numinlets": 1,
                                    "numoutlets": 0,
                                    "patching_rect": [ 375.0, 274.0, 35.0, 22.0 ],
                                    "text": "out 1"
                                }
                            },
                            {
                                "box": {
                                    "id": "obj-28",
                                    "maxclass": "newobj",
                                    "numinlets": 1,
                                    "numoutlets": 4,
                                    "outlettype": [ "", "", "", "" ],
                                    "patching_rect": [ 375.0, 228.0, 35.0, 22.0 ],
                                    "text": "grain"
                                }
                            },
                            {
                                "box": {
                                    "id": "obj-9",
                                    "maxclass": "newobj",
                                    "numinlets": 1,
                                    "numoutlets": 0,
                                    "patching_rect": [ 328.0, 272.0, 35.0, 22.0 ],
                                    "text": "out 1"
                                }
                            },
                            {
                                "box": {
                                    "id": "obj-10",
                                    "maxclass": "newobj",
                                    "numinlets": 1,
                                    "numoutlets": 4,
                                    "outlettype": [ "", "", "", "" ],
                                    "patching_rect": [ 328.0, 228.0, 35.0, 22.0 ],
                                    "text": "grain"
                                }
                            },
                            {
                                "box": {
                                    "id": "obj-11",
                                    "maxclass": "newobj",
                                    "numinlets": 1,
                                    "numoutlets": 0,
                                    "patching_rect": [ 270.0, 272.0, 35.0, 22.0 ],
                                    "text": "out 1"
                                }
                            },
                            {
                                "box": {
                                    "id": "obj-12",
                                    "maxclass": "newobj",
                                    "numinlets": 1,
                                    "numoutlets": 4,
                                    "outlettype": [ "", "", "", "" ],
                                    "patching_rect": [ 270.0, 228.0, 35.0, 22.0 ],
                                    "text": "grain"
                                }
                            },
                            {
                                "box": {
                                    "id": "obj-13",
                                    "maxclass": "newobj",
                                    "numinlets": 1,
                                    "numoutlets": 0,
                                    "patching_rect": [ 213.0, 274.0, 35.0, 22.0 ],
                                    "text": "out 1"
                                }
                            },
                            {
                                "box": {
                                    "id": "obj-14",
                                    "maxclass": "newobj",
                                    "numinlets": 1,
                                    "numoutlets": 4,
                                    "outlettype": [ "", "", "", "" ],
                                    "patching_rect": [ 213.0, 228.0, 35.0, 22.0 ],
                                    "text": "grain"
                                }
                            },
                            {
                                "box": {
                                    "id": "obj-7",
                                    "maxclass": "newobj",
                                    "numinlets": 1,
                                    "numoutlets": 0,
                                    "patching_rect": [ 164.0, 272.0, 35.0, 22.0 ],
                                    "text": "out 1"
                                }
                            },
                            {
                                "box": {
                                    "id": "obj-8",
                                    "maxclass": "newobj",
                                    "numinlets": 1,
                                    "numoutlets": 4,
                                    "outlettype": [ "", "", "", "" ],
                                    "patching_rect": [ 164.0, 228.0, 35.0, 22.0 ],
                                    "text": "grain"
                                }
                            },
                            {
                                "box": {
                                    "id": "obj-6",
                                    "maxclass": "newobj",
                                    "numinlets": 1,
                                    "numoutlets": 0,
                                    "patching_rect": [ 105.0, 272.0, 35.0, 22.0 ],
                                    "text": "out 1"
                                }
                            },
                            {
                                "box": {
                                    "id": "obj-2",
                                    "maxclass": "newobj",
                                    "numinlets": 1,
                                    "numoutlets": 4,
                                    "outlettype": [ "", "", "", "" ],
                                    "patching_rect": [ 105.0, 228.0, 35.0, 22.0 ],
                                    "text": "grain"
                                }
                            },
                            {
                                "box": {
                                    "id": "obj-1",
                                    "maxclass": "newobj",
                                    "numinlets": 0,
                                    "numoutlets": 1,
                                    "outlettype": [ "" ],
                                    "patching_rect": [ 49.0, 188.0, 65.0, 22.0 ],
                                    "text": "in 1 trigger"
                                }
                            },
                            {
                                "box": {
                                    "id": "obj-74",
                                    "maxclass": "newobj",
                                    "numinlets": 1,
                                    "numoutlets": 1,
                                    "outlettype": [ "" ],
                                    "patching_rect": [ 523.0, 105.0, 112.0, 22.0 ],
                                    "text": "history gOffsetJitter"
                                }
                            },
                            {
                                "box": {
                                    "id": "obj-73",
                                    "maxclass": "newobj",
                                    "numinlets": 1,
                                    "numoutlets": 1,
                                    "outlettype": [ "" ],
                                    "patching_rect": [ 263.0, 105.0, 86.0, 22.0 ],
                                    "text": "history gOffset"
                                }
                            },
                            {
                                "box": {
                                    "id": "obj-70",
                                    "maxclass": "newobj",
                                    "numinlets": 1,
                                    "numoutlets": 1,
                                    "outlettype": [ "" ],
                                    "patching_rect": [ 49.0, 123.0, 99.0, 22.0 ],
                                    "text": "history gDuration"
                                }
                            },
                            {
                                "box": {
                                    "id": "obj-69",
                                    "maxclass": "newobj",
                                    "numinlets": 1,
                                    "numoutlets": 1,
                                    "outlettype": [ "" ],
                                    "patching_rect": [ 263.0, 180.0, 89.0, 22.0 ],
                                    "text": "history gSpeed"
                                }
                            },
                            {
                                "box": {
                                    "id": "obj-51",
                                    "maxclass": "newobj",
                                    "numinlets": 0,
                                    "numoutlets": 1,
                                    "outlettype": [ "" ],
                                    "patching_rect": [ 523.0, 76.0, 256.0, 22.0 ],
                                    "text": "param offsetJitter @min 0 @max 1 @default 0"
                                }
                            },
                            {
                                "box": {
                                    "id": "obj-30",
                                    "maxclass": "newobj",
                                    "numinlets": 0,
                                    "numoutlets": 1,
                                    "outlettype": [ "" ],
                                    "patching_rect": [ 263.0, 139.0, 240.0, 22.0 ],
                                    "text": "param speed @min 0 @max 10 @default 1"
                                }
                            },
                            {
                                "box": {
                                    "id": "obj-24",
                                    "linecount": 2,
                                    "maxclass": "newobj",
                                    "numinlets": 0,
                                    "numoutlets": 1,
                                    "outlettype": [ "" ],
                                    "patching_rect": [ 49.0, 74.0, 170.6666717529297, 36.0 ],
                                    "text": "param duration @min 10 @max 1000 @default 300"
                                }
                            },
                            {
                                "box": {
                                    "id": "obj-22",
                                    "maxclass": "newobj",
                                    "numinlets": 0,
                                    "numoutlets": 1,
                                    "outlettype": [ "" ],
                                    "patching_rect": [ 263.0, 74.0, 230.0, 22.0 ],
                                    "text": "param offset @min 0 @max 1 @default 0"
                                }
                            },
                            {
                                "box": {
                                    "id": "obj-67",
                                    "maxclass": "newobj",
                                    "numinlets": 1,
                                    "numoutlets": 0,
                                    "patching_rect": [ 49.0, 274.0, 35.0, 22.0 ],
                                    "text": "out 1"
                                }
                            },
                            {
                                "box": {
                                    "id": "obj-66",
                                    "maxclass": "newobj",
                                    "numinlets": 1,
                                    "numoutlets": 4,
                                    "outlettype": [ "", "", "", "" ],
                                    "patching_rect": [ 49.0, 228.0, 35.0, 22.0 ],
                                    "text": "grain"
                                }
                            }
                        ],
                        "lines": [
                            {
                                "patchline": {
                                    "destination": [ "obj-66", 0 ],
                                    "source": [ "obj-1", 0 ]
                                }
                            },
                            {
                                "patchline": {
                                    "destination": [ "obj-28", 0 ],
                                    "source": [ "obj-10", 1 ]
                                }
                            },
                            {
                                "patchline": {
                                    "destination": [ "obj-29", 0 ],
                                    "source": [ "obj-10", 2 ]
                                }
                            },
                            {
                                "patchline": {
                                    "destination": [ "obj-9", 0 ],
                                    "source": [ "obj-10", 0 ]
                                }
                            },
                            {
                                "patchline": {
                                    "destination": [ "obj-10", 0 ],
                                    "source": [ "obj-12", 1 ]
                                }
                            },
                            {
                                "patchline": {
                                    "destination": [ "obj-11", 0 ],
                                    "source": [ "obj-12", 0 ]
                                }
                            },
                            {
                                "patchline": {
                                    "destination": [ "obj-29", 0 ],
                                    "source": [ "obj-12", 2 ]
                                }
                            },
                            {
                                "patchline": {
                                    "destination": [ "obj-12", 0 ],
                                    "source": [ "obj-14", 1 ]
                                }
                            },
                            {
                                "patchline": {
                                    "destination": [ "obj-13", 0 ],
                                    "source": [ "obj-14", 0 ]
                                }
                            },
                            {
                                "patchline": {
                                    "destination": [ "obj-29", 0 ],
                                    "source": [ "obj-14", 2 ]
                                }
                            },
                            {
                                "patchline": {
                                    "destination": [ "obj-15", 0 ],
                                    "source": [ "obj-16", 0 ]
                                }
                            },
                            {
                                "patchline": {
                                    "destination": [ "obj-29", 0 ],
                                    "source": [ "obj-16", 2 ]
                                }
                            },
                            {
                                "patchline": {
                                    "destination": [ "obj-16", 0 ],
                                    "source": [ "obj-18", 1 ]
                                }
                            },
                            {
                                "patchline": {
                                    "destination": [ "obj-17", 0 ],
                                    "source": [ "obj-18", 0 ]
                                }
                            },
                            {
                                "patchline": {
                                    "destination": [ "obj-29", 0 ],
                                    "source": [ "obj-18", 2 ]
                                }
                            },
                            {
                                "patchline": {
                                    "destination": [ "obj-29", 0 ],
                                    "source": [ "obj-2", 2 ]
                                }
                            },
                            {
                                "patchline": {
                                    "destination": [ "obj-6", 0 ],
                                    "source": [ "obj-2", 0 ]
                                }
                            },
                            {
                                "patchline": {
                                    "destination": [ "obj-8", 0 ],
                                    "source": [ "obj-2", 1 ]
                                }
                            },
                            {
                                "patchline": {
                                    "destination": [ "obj-18", 0 ],
                                    "source": [ "obj-20", 1 ]
                                }
                            },
                            {
                                "patchline": {
                                    "destination": [ "obj-19", 0 ],
                                    "source": [ "obj-20", 0 ]
                                }
                            },
                            {
                                "patchline": {
                                    "destination": [ "obj-29", 0 ],
                                    "source": [ "obj-20", 2 ]
                                }
                            },
                            {
                                "patchline": {
                                    "destination": [ "obj-73", 0 ],
                                    "source": [ "obj-22", 0 ]
                                }
                            },
                            {
                                "patchline": {
                                    "destination": [ "obj-20", 0 ],
                                    "source": [ "obj-23", 1 ]
                                }
                            },
                            {
                                "patchline": {
                                    "destination": [ "obj-21", 0 ],
                                    "source": [ "obj-23", 0 ]
                                }
                            },
                            {
                                "patchline": {
                                    "destination": [ "obj-29", 0 ],
                                    "source": [ "obj-23", 2 ]
                                }
                            },
                            {
                                "patchline": {
                                    "destination": [ "obj-70", 0 ],
                                    "source": [ "obj-24", 0 ]
                                }
                            },
                            {
                                "patchline": {
                                    "destination": [ "obj-23", 0 ],
                                    "source": [ "obj-26", 1 ]
                                }
                            },
                            {
                                "patchline": {
                                    "destination": [ "obj-25", 0 ],
                                    "source": [ "obj-26", 0 ]
                                }
                            },
                            {
                                "patchline": {
                                    "destination": [ "obj-29", 0 ],
                                    "source": [ "obj-26", 2 ]
                                }
                            },
                            {
                                "patchline": {
                                    "destination": [ "obj-26", 0 ],
                                    "source": [ "obj-28", 1 ]
                                }
                            },
                            {
                                "patchline": {
                                    "destination": [ "obj-27", 0 ],
                                    "source": [ "obj-28", 0 ]
                                }
                            },
                            {
                                "patchline": {
                                    "destination": [ "obj-29", 0 ],
                                    "source": [ "obj-28", 2 ]
                                }
                            },
                            {
                                "patchline": {
                                    "destination": [ "obj-69", 0 ],
                                    "source": [ "obj-30", 0 ]
                                }
                            },
                            {
                                "patchline": {
                                    "destination": [ "obj-74", 0 ],
                                    "source": [ "obj-51", 0 ]
                                }
                            },
                            {
                                "patchline": {
                                    "destination": [ "obj-2", 0 ],
                                    "source": [ "obj-66", 1 ]
                                }
                            },
                            {
                                "patchline": {
                                    "destination": [ "obj-29", 0 ],
                                    "source": [ "obj-66", 2 ]
                                }
                            },
                            {
                                "patchline": {
                                    "destination": [ "obj-67", 0 ],
                                    "source": [ "obj-66", 0 ]
                                }
                            },
                            {
                                "patchline": {
                                    "destination": [ "obj-14", 0 ],
                                    "source": [ "obj-8", 1 ]
                                }
                            },
                            {
                                "patchline": {
                                    "destination": [ "obj-29", 0 ],
                                    "source": [ "obj-8", 2 ]
                                }
                            },
                            {
                                "patchline": {
                                    "destination": [ "obj-7", 0 ],
                                    "source": [ "obj-8", 0 ]
                                }
                            }
                        ]
                    },
                    "patching_rect": [ 31.0, 292.0, 348.0, 22.0 ],
                    "text": "gen~ @duration 100 @speed 0.8 @offsetJitter 0.18 @offset 0.2",
                    "varname": "gen~_AA"
                }
            },
            {
                "box": {
                    "id": "obj-1",
                    "maxclass": "newobj",
                    "numinlets": 1,
                    "numoutlets": 2,
                    "outlettype": [ "float", "bang" ],
                    "patching_rect": [ 128.0, 447.0, 136.0, 22.0 ],
                    "text": "buffer~ src isthatyou.aiff"
                }
            },
            {
                "box": {
                    "attr": "offset",
                    "id": "obj-10",
                    "maxclass": "attrui",
                    "numinlets": 1,
                    "numoutlets": 1,
                    "outlettype": [ "" ],
                    "parameter_enable": 0,
                    "patching_rect": [ 104.0, 259.0, 150.0, 22.0 ]
                }
            },
            {
                "box": {
                    "attr": "duration",
                    "id": "obj-11",
                    "maxclass": "attrui",
                    "numinlets": 1,
                    "numoutlets": 1,
                    "outlettype": [ "" ],
                    "parameter_enable": 0,
                    "patching_rect": [ 104.0, 187.0, 150.0, 22.0 ]
                }
            },
            {
                "box": {
                    "attr": "speed",
                    "id": "obj-12",
                    "maxclass": "attrui",
                    "numinlets": 1,
                    "numoutlets": 1,
                    "outlettype": [ "" ],
                    "parameter_enable": 0,
                    "patching_rect": [ 104.0, 211.0, 150.0, 22.0 ]
                }
            },
            {
                "box": {
                    "attr": "offsetJitter",
                    "id": "obj-16",
                    "maxclass": "attrui",
                    "numinlets": 1,
                    "numoutlets": 1,
                    "outlettype": [ "" ],
                    "parameter_enable": 0,
                    "patching_rect": [ 104.0, 235.0, 150.0, 22.0 ]
                }
            }
        ],
        "lines": [
            {
                "patchline": {
                    "destination": [ "obj-2", 0 ],
                    "source": [ "obj-10", 0 ]
                }
            },
            {
                "patchline": {
                    "destination": [ "obj-2", 0 ],
                    "source": [ "obj-11", 0 ]
                }
            },
            {
                "patchline": {
                    "destination": [ "obj-2", 0 ],
                    "source": [ "obj-12", 0 ]
                }
            },
            {
                "patchline": {
                    "destination": [ "obj-2", 0 ],
                    "source": [ "obj-16", 0 ]
                }
            },
            {
                "patchline": {
                    "destination": [ "obj-5", 0 ],
                    "source": [ "obj-17", 0 ]
                }
            },
            {
                "patchline": {
                    "destination": [ "obj-17", 0 ],
                    "source": [ "obj-19", 0 ]
                }
            },
            {
                "patchline": {
                    "destination": [ "obj-14", 0 ],
                    "source": [ "obj-2", 1 ]
                }
            },
            {
                "patchline": {
                    "destination": [ "obj-4", 0 ],
                    "order": 0,
                    "source": [ "obj-2", 0 ]
                }
            },
            {
                "patchline": {
                    "destination": [ "obj-6", 1 ],
                    "order": 1,
                    "source": [ "obj-2", 0 ]
                }
            },
            {
                "patchline": {
                    "destination": [ "obj-6", 0 ],
                    "order": 2,
                    "source": [ "obj-2", 0 ]
                }
            },
            {
                "patchline": {
                    "destination": [ "obj-17", 1 ],
                    "source": [ "obj-23", 0 ]
                }
            },
            {
                "patchline": {
                    "destination": [ "obj-2", 0 ],
                    "source": [ "obj-3", 0 ]
                }
            },
            {
                "patchline": {
                    "destination": [ "obj-3", 0 ],
                    "source": [ "obj-5", 0 ]
                }
            },
            {
                "patchline": {
                    "destination": [ "obj-7", 1 ],
                    "source": [ "obj-6", 1 ]
                }
            },
            {
                "patchline": {
                    "destination": [ "obj-7", 0 ],
                    "source": [ "obj-6", 0 ]
                }
            }
        ],
        "parameters": {
            "obj-6": [ "live.gain~", "live.gain~", 0 ],
            "parameterbanks": {
                "0": {
                    "index": 0,
                    "name": "",
                    "parameters": [ "-", "-", "-", "-", "-", "-", "-", "-" ],
                    "buttons": [ "-", "-", "-", "-", "-", "-", "-", "-" ]
                }
            },
            "inherited_shortname": 1
        },
        "autosave": 0
    }
}